<svg id="Icon_ionic-md-pricetags" data-name="Icon ionic-md-pricetags" xmlns="http://www.w3.org/2000/svg" width="18.074" height="16.783" viewBox="0 0 18.074 16.783">
  <path id="Tracé_1775" data-name="Tracé 1775" d="M24.7,7.523v5.688L16.116,21.43a1.839,1.839,0,0,0,1.162.5,2.01,2.01,0,0,0,1.267-.5l7.689-7.25V9.016Z" transform="translate(-8.159 -5.143)" fill="#d00b41"/>
  <path id="Tracé_1776" data-name="Tracé 1776" d="M16.45,3.375H10l-7.25,7.568a1.651,1.651,0,0,0-.5,1.146,1.765,1.765,0,0,0,.5,1.287L7.74,18.363a1.852,1.852,0,0,0,1.162.5,2.013,2.013,0,0,0,1.263-.5l7.576-7.242V4.666ZM15.212,7.518a1.292,1.292,0,1,1,.863-.863A1.256,1.256,0,0,1,15.212,7.518Z" transform="translate(-2.249 -3.375)" fill="#d00b41"/>
</svg>
