<svg xmlns="http://www.w3.org/2000/svg" width="13.535" height="13.535" viewBox="0 0 13.535 13.535">
  <path id="Icon_awesome-plus" data-name="Icon awesome-plus" d="M12.568,7.567H8.218V3.217a.967.967,0,0,0-.967-.967H6.284a.967.967,0,0,0-.967.967V7.567H.967A.967.967,0,0,0,0,8.534V9.5a.967.967,0,0,0,.967.967H5.317v4.351a.967.967,0,0,0,.967.967h.967a.967.967,0,0,0,.967-.967V10.468h4.351a.967.967,0,0,0,.967-.967V8.534A.967.967,0,0,0,12.568,7.567Z" transform="translate(0 -2.25)" fill="#707070"/>
</svg>
