<svg xmlns="http://www.w3.org/2000/svg" width="15.923" height="18.198" viewBox="0 0 15.923 18.198">
  <path id="Icon_awesome-calendar-alt" data-name="Icon awesome-calendar-alt" d="M0,16.492A1.707,1.707,0,0,0,1.706,18.2H14.217a1.707,1.707,0,0,0,1.706-1.706V6.824H0ZM11.374,9.526A.428.428,0,0,1,11.8,9.1h1.422a.428.428,0,0,1,.427.427v1.422a.428.428,0,0,1-.427.427H11.8a.428.428,0,0,1-.427-.427Zm0,4.55a.428.428,0,0,1,.427-.427h1.422a.428.428,0,0,1,.427.427V15.5a.428.428,0,0,1-.427.427H11.8a.428.428,0,0,1-.427-.427Zm-4.55-4.55A.428.428,0,0,1,7.251,9.1H8.673a.428.428,0,0,1,.427.427v1.422a.428.428,0,0,1-.427.427H7.251a.428.428,0,0,1-.427-.427Zm0,4.55a.428.428,0,0,1,.427-.427H8.673a.428.428,0,0,1,.427.427V15.5a.428.428,0,0,1-.427.427H7.251a.428.428,0,0,1-.427-.427Zm-4.55-4.55A.428.428,0,0,1,2.7,9.1H4.123a.428.428,0,0,1,.427.427v1.422a.428.428,0,0,1-.427.427H2.7a.428.428,0,0,1-.427-.427Zm0,4.55a.428.428,0,0,1,.427-.427H4.123a.428.428,0,0,1,.427.427V15.5a.428.428,0,0,1-.427.427H2.7a.428.428,0,0,1-.427-.427Zm11.942-11.8H12.511V.569A.57.57,0,0,0,11.942,0H10.805a.57.57,0,0,0-.569.569V2.275H5.687V.569A.57.57,0,0,0,5.118,0H3.981a.57.57,0,0,0-.569.569V2.275H1.706A1.707,1.707,0,0,0,0,3.981V5.687H15.923V3.981A1.707,1.707,0,0,0,14.217,2.275Z" fill="#d00b41"/>
</svg>
