<svg xmlns="http://www.w3.org/2000/svg" viewBox="0 0 501.42 344.27"><defs><style>.cls-1{fill:#9e192d;}</style></defs><g id="Layer_2" data-name="Layer 2"><g id="_1x" data-name="1x"><path class="cls-1" d="M208,209.57v0l59.63-43.34-2.43-7.5-43,31.2,7.25-22.27-6.38-4.63L210.4,202a65.17,65.17,0,0,1-23.46-65.19l-6.58-4.76A72.69,72.69,0,0,0,208,209.57m39.59-42.64-43-31.2H228l2.43-7.51h-41A65.45,65.45,0,0,1,244.2,85.75L246.74,78a72.91,72.91,0,0,0-65.23,50.18l59.64,43.34ZM207.73,70.4h.42c-.28-3.28-1.43-5.23-3.48-6-7.43-2.79-11.41-8.91-11.41-15.75,0-7.79,5-12.64,11.25-12.64,8.87,0,12.09,10.37,22.23,10.37,3.64,0,6.64-2.16,6.64-4V41.31h-1.91c-12.74,0-14.69-12.82-27-12.82-10.47,0-18.77,8.29-18.77,20.16a21.51,21.51,0,0,0,22,21.73M90.21,154H135.9v-.39a30.09,30.09,0,0,1-12.05-7.12H90.21c-17.13,0-22.18-1.57-30.65-10.74h116.1a74.58,74.58,0,0,1,1.89-7.49H43.21l5.19,6.16C62,150.54,67.11,154,90.23,154M230.72,37.1a10.5,10.5,0,0,0,10.53-10.4c0-5.11-2.34-7.16-4.77-7.16a3.85,3.85,0,0,0-3.85,3.82,3.89,3.89,0,0,0,3.59,3.8c-2,3-4.95,4-8.8,3.74a3.8,3.8,0,0,0-.92-5.31,3.93,3.93,0,0,0-2.2-.7A4.07,4.07,0,0,0,220.52,29c0,4.27,4,8.15,10.2,8.15M193.26,201.24h-55c-15.13,0-20.84-1.27-27.84-7.93H100c11.11,12.58,17.29,15.43,38.23,15.43h62.64a78.13,78.13,0,0,1-7.61-7.5m-25.33-10.77v-.38A30,30,0,0,1,155.86,183H122.24c-15.15,0-20.85-1.25-27.85-7.89H84c11.11,12.54,17.26,15.39,38.23,15.39Zm-16-18.24v-.43a30.39,30.39,0,0,1-12.05-7.06H106.22c-15.13,0-20.84-1.27-27.84-7.93H68c11.11,12.58,17.29,15.42,38.23,15.42ZM266.05,47.91c-3.74,0-7.52,4.56-8.91,11.22,2.29.16,4.61.42,6.86.77,1.49-5.82,4.09-8.51,6.24-8.88a4.66,4.66,0,0,0-4.19-3.11m-15.35,30-22.77,70.14,6.37,4.63,16.38-50.48L258,124.46h7.88L253.2,85.51a65.34,65.34,0,0,1,57.3,38.95h8.09a72.9,72.9,0,0,0-67.85-46.54m40.62,3.79V74a84.85,84.85,0,0,0-40.64-11.11A85,85,0,0,0,210,74v7.69a78.86,78.86,0,0,1,81.32,0M213.7,67.06c1.93-.89,3.88-1.73,5.88-2.5-1-2.89-2.8-6.21-6.22-6.21a4.11,4.11,0,0,0-3.64,3c1.59.6,2.88,2,4,5.73m4.11,140-6.56,4.77a72.45,72.45,0,0,0,82.21-2.23h0l-22.78-70.14h-7.91L279.21,190l-18.93-13.74-6.38,4.65L287,204.92a64.92,64.92,0,0,1-69.21,2.15M237.44,59.88c2.28-.37,4.57-.59,6.88-.75-1.4-6.64-5.19-11.22-8.91-11.22a4.67,4.67,0,0,0-4.2,3.11c2.17.39,4.76,3.06,6.23,8.86m-13.58-7a4.44,4.44,0,0,0-4,2.95c1.61.22,3.8,1.55,5.39,6.76,2.09-.62,4.23-1.18,6.38-1.65-1.53-5.17-4.31-8.08-7.75-8.08M401.42,193.31H391.06c-7,6.64-12.7,7.93-27.83,7.93H308.18a75.39,75.39,0,0,1-7.58,7.48h62.63c20.93,0,27.06-2.83,38.19-15.41m-155.2-65.09-2.46,7.51h53.1l-18.94,13.76,2.44,7.48,33.18-24.08a65.1,65.1,0,0,1-19.4,66.5l2.52,7.7a72.65,72.65,0,0,0,23.27-78.91Zm195.64,7.51c-8.49,9.13-13.52,10.74-30.64,10.74H377.58a30.32,30.32,0,0,1-12.07,7.12V154h45.71c23.1,0,28.21-3.48,41.81-19.6l5.21-6.18H323.9c.74,2.46,1.37,5,1.87,7.51H441.86ZM243.32,22.82l7.4-5.4,7.43,5.4-2.82-8.72,7.4-5.39h-9.17L250.72,0l-2.81,8.71h-9.2l7.45,5.39ZM417.39,175.06H407c-7,6.64-12.67,7.91-27.82,7.91H345.55a30.43,30.43,0,0,1-12.05,7.12v.42h45.71c20.94,0,27.1-2.91,38.18-15.45m16-18.25H423.05c-7,6.64-12.7,7.93-27.85,7.93H361.56a30.25,30.25,0,0,1-12.07,7.08v.43H395.2c20.95,0,27.1-2.86,38.21-15.44M291.73,61.35a4.1,4.1,0,0,0-3.63-3c-3.42,0-5.27,3.3-6.21,6.21,2,.77,3.94,1.59,5.85,2.5,1.07-3.8,2.4-5.19,4-5.75M246,47.24a25.57,25.57,0,0,1,4.61,7.18l.1.15.1-.15a26.62,26.62,0,0,1,4.63-7.18,26.85,26.85,0,0,0-4.71-7.36A26.79,26.79,0,0,0,246,47.24m22.1-5.91v1.08c0,1.83,3,4,6.64,4C284.87,46.36,288.08,36,297,36c6.25,0,11.26,4.85,11.26,12.66,0,6.84-4,12.94-11.4,15.73-2.08.77-3.22,2.7-3.52,6h.46a21.52,21.52,0,0,0,22-21.73c0-11.87-8.29-20.16-18.77-20.16-12.28,0-14.23,12.82-27,12.82ZM260.2,26.66a10.5,10.5,0,0,0,10.52,10.4c6.18,0,10.18-3.88,10.18-8.17a4,4,0,0,0-3.8-4.06,3.8,3.8,0,0,0-3.8,3.82,3.73,3.73,0,0,0,.7,2.19c-3.84.29-6.8-.74-8.77-3.74a3.81,3.81,0,0,0-.28-7.62c-2.42,0-4.75,2.11-4.75,7.18m-9.5-2.9a6,6,0,1,0,6,6,6,6,0,0,0-6-6m30.91,32.13a4.44,4.44,0,0,0-4-3c-3.44,0-6.21,2.89-7.74,8.08,2.15.47,4.28,1,6.37,1.65,1.59-5.23,3.77-6.56,5.4-6.78M52.94,340.81H43.21V318.58h10.1v4.79s1.34-4.81,8.35-4.29v10.7s-7.51-1.08-8.72,2.5Zm208.51,0h-9.76V318.58h10.08v4.79s1.35-4.81,8.35-4.29v10.7s-7.51-1.08-8.71,2.5ZM80.61,324.27s-3.92-.36-4.45,5.17c0,0,.16,4.45,4.11,4.63,0,0,3.76.36,4.1-4.47,0,0,.18-5.17-3.76-5.33m13.16,5.51c-.51,12.66-13.14,11.55-13.14,11.55-14.51.73-14.35-12.09-14.35-12.09.87-11.41,14.19-11,14.19-11,13.8,0,13.3,11.56,13.3,11.56m322.78-5.51s-3.92-.36-4.45,5.17c0,0,.16,4.45,4.11,4.63,0,0,3.74.36,4.1-4.47,0,0,.18-5.17-3.76-5.33m13.18,5.51c-.52,12.66-13.16,11.55-13.16,11.55-14.51.73-14.33-12.09-14.33-12.09.83-11.41,14.17-11,14.17-11,13.8,0,13.32,11.56,13.32,11.56M95.82,318.56h12l3.78,11,3.4-11h11l-8,18s-3.26,8.56-8.55,7.67H97.87v-6.44h7.18Zm47.84,5.87s-4.62-.7-4.78,5.19c0,0,0,4.77,4.26,4.77,0,0,3.92.18,4.27-4.61,0,0,.52-5.35-3.79-5.35m3.44-5.87H157v22.25h-9.92v-4.1c-2.89,4.62-8.87,4.1-8.87,4.1-10.4-1.09-9.25-11.77-9.25-11.77.36-11.73,10.08-11.21,10.08-11.21,4.26-.16,8,3.54,8,3.54Zm67.63,5.87s-4.61-.7-4.77,5.19c0,0,0,4.77,4.26,4.77,0,0,3.95.18,4.25-4.61,0,0,.54-5.35-3.74-5.35m3.42-5.87H228v22.25h-9.92v-4.1c-2.9,4.62-8.87,4.1-8.87,4.1-10.41-1.09-9.24-11.75-9.24-11.75.36-11.73,10.08-11.21,10.08-11.21,4.27-.16,8,3.54,8,3.54Zm170.61,22.25H379V318.58h10.1v4.79s1.34-4.81,8.35-4.29v10.7s-7.53-1.08-8.72,2.5ZM359,324.43s-4.61-.7-4.77,5.19c0,0,0,4.77,4.24,4.77,0,0,3.95.18,4.27-4.61,0,0,.52-5.35-3.74-5.35m3.4-5.87h9.92v22.25h-9.9v-4.1c-2.9,4.62-8.9,4.1-8.9,4.1-10.4-1.09-9.21-11.75-9.21-11.75.32-11.73,10.08-11.21,10.08-11.21,4.27-.16,8,3.54,8,3.54Zm-199.13-3.93h10.24v26.18H163.28Zm71.23,3.93h10.24v22.25H234.51Zm0-4.45h10.24v2.94H234.51Zm61.8,26.7V318.56h9.9v5a9.48,9.48,0,0,1,8.73-5.33,7.83,7.83,0,0,1,7.51,4.44s4.1-5.51,8.71-4.44a7.09,7.09,0,0,1,7.2,6.05l0,16.38H327.76V329s-.52-3.38-2.9-3a2.94,2.94,0,0,0-2.89,2.66v12.11H311.54V329.58s.53-3.94-2.39-3.4c0,0-2.55-.36-3.08,2.84v11.75Zm161.93-21.53s-3.76-1.61-11.77-1.79c0,0-11.29-.16-11.61,12.27,0,0,0,10.51,12.63,11,0,0,8.19,0,10.77-3.74v-5.19s-2.58,1.61-7.51,1.61c0,0-5.81.36-5.81-4.65,0,0,.32-4.27,4.45-4.07a15.6,15.6,0,0,1,8.87,1.25ZM85.12,273.37S82.4,278.08,82.4,279s.7,2.34-.12,2.7-7.34,2.11-6.76-4.05c-6.52,2.6-23.44,10.12-38.61,10.12-9.06,0-13.62,1.11-17.36-2.87-1.8-2.5-6.46-6.12-9.54.52-3.2,4.57-3.32,8.79-5.33,8.39S1.6,289,1,283.73c-2.25,7.52-.42,17.3,2.26,17.16s4.16-4.73,5.51-7.62,1.87-4.15,3.84-4.23c7.35.38-.36,8,23.34,6.9,11-1.1,25.23-3.32,34.85-10.1,1.79-1.49,2.23-1.87,2.72,1,.6,3.1,1.89,4.32,5.21,4.06s9.33-6,6.38-17.5m416-8.75c-1.18,2.07-3.8,6.9-5.11,7.64,0,3.56.61,26.4-.22,28,2-3.68,5.82-8.25,5.56-11.71s.36-22.31-.23-23.92m-31.38,4.95-5.94,4.18,3.44,3.22,5.33-4.81Z"/><path class="cls-1" d="M401.76,285.48c.36-2.11-2.25-5.05-5.23-4.33,0,2.34.73,4.47,1.91,4.71s3,.39,3.32-.4m42.17,2.37c-4.14-2.35-16.82,2.34-20.58,4.45,5.41.6,20.46,0,20.58-4.45m43.48-17.66s-2.25,2.86-3,4-.22,1.49-.36,3.44.12,5.09-2.35,8.39c.94,1,12.19,3.22,12.19,3.22l-5.81,6.92c-.83-.5-6.74.23-9.36.49s-15.75,2.11-21.45,2.83-18.95,1.25-29.49.87-14.59-2.5-20.61-4.19c0,0-3.56,4.93-5.81,5.54s-10,1.24-19.9-.85c3.08-.24,20-4.46,23-7.78-7,.24-12.44-2.5-12.9-3.95s1.77-4.71,2.94-6.92,4.26-7.89,6.16-7.79c3.44.25,6.76,6.44,8.41,11,1.52,2.21,6.51,5.55,10.42,4.57.7-.51,4.26-2.48,5.91-3.46l-.22-9.12c-.1-1.73-1.31-2.33-1.53-3.94s1.65-5.31,4.15-9.64c-.61,1.87,1.65,4.09,2.11,6.56s-1.53,3.32-1.77,3.94-.36,5.82-.12,11c14.93-7.18,17.86-6.18,21.08-3.94s2,6.64-3.44,11c3.54.48,15.4-.62,21.57-2.11-.48-.38-10.78-2.34-10.78-2.34.7-.24,3.52-5.67,3.52-5.67l18.25-.24c2.39,0,2.39-1.73,2.39-1.73l.12-4.69c0-1.25-.48-1.49-.82-4.32s4.75-6.91,4.75-6.91c-1.17,4.19,0,4.41,2.73,5.9m-109,20.92c-.1-1.59-1.32-3.74-5.53-3.52s-8.77,4.63-10.56,7c1.67.11,12.35-.46,16.09-3.5M364.22,271a9.61,9.61,0,0,1,2.29,1.39c.36,0-.24,2-2.39,3.24a61.3,61.3,0,0,1-.47,13.7c14.77-10.9,22.06-10,22.92-5s-9.23,15.17-17.76,15.94-12.78-1.31-21.33-5.19c1.61.38,5.87-.2,10.68.56.36-1.13,2.3-3.16,3.91-4.45L361,278.56c-.16-1.45-1.45-1.65-1.09-4.81s1.87-7.12,4.55-7.58a11.09,11.09,0,0,0-.24,4.8M337,265.44c-.45.91-4.45,8-4.45,8,.36,6,1.15,22.67-.54,26.54,3.74-5,5.51-9.16,5.51-11,0,0-.1-22.51-.52-23.52M320,289.52c-.24,1.59-.56,5.6,4,4.69,1.35-.92-.42-5.23-3.95-4.69m-.3-20.86c0,.54,2.5,1.11,2.66,2.6s-.44,2.57-1.95,4.44l-.26,4.55s-.08,2.11.54,2.76c1.41.74,2.76-1.29,5.05-.47,3.76,1.37,1.51,7.51.7,10.59s-3.64,8.12-5.51,8c-2.9-.14-4-2.41-4.77-6.76-2.15,1.85-13.52,6.12-18.93,6s-7.12-5-8.35-9.34c-.62,1.94-5.59,9.7-14.67,9.6s-15.29-5.63-19.29-9.05l-1,.26c-.7,5.39-4.87,6.68-7.62,6.94s-5.7-3.88-7.13-8c-1.24.83-16.72,7.47-28.87,7.61-22.13.26-18.05-8.81-22.75-8.71-2,.06-2.5.62-3.83,3.52s-3.38,7.46-6,7.46c-6.38,0-5.23-11.93-1.77-17.66,1.06-2,1.51-.83,1,.26s-1.79,8.63.37,9c1.48.24,3.82-1.49,7-6,2.83-4.65,8.35-3.91,10.14-1.41,3.38,5,8.53,5.19,17.58,5.39s14.83-1.49,29.16-7.61a6.07,6.07,0,0,0,2,6c2.21,1.65,6,2.51,7.28-1.21l-5.95-5.35c-2-1.77-3.38-1.77-2.92-7,0-9.92,28.87-8.41,28.87-8.41,3.12,0,6.16-.46,6.44,2.21.5,6.12-5.45,10.18-11.05,11.87,1.71-.92,6-4.08,6.32-5.55.4-1.65-.2-2.31-1.79-2.21s-22.64,2-22.64,2c-1.16.18-.46,1.21-.46,1.21l18.91,13.23c8.56,4.45,15.3,1.49,19.12,0s3.74-3.88,3.82-5.63l.36-12.31c1-.57,3.38-5,3.38-5l-.36,19.8c.1,2.31.36,6.21,3.12,6.57,6.12,1.05,18.21-5,21.15-7.22q.06-4.16-.19-8.33c0-1.29-2-1.77-2-3.32s4-8.25,4.87-9.27c-.42,1,.2,3.32.2,3.9m-136.39,2.64L177.45,276l3.92,2s3.74-3.14,5.33-2.94,3.92,2.21,3.92,2.21,5.15-4.44,5.86-4.63a9.77,9.77,0,0,0-3.38-2.59s-4.45,3.14-5.49,3.14-4.29-1.85-4.29-1.85"/><path class="cls-1" d="M229,296.1a38.84,38.84,0,0,1-6.27,3.59l3.78,2.31s4.4-2.6,5.33-2.21a30.26,30.26,0,0,1,3.32,2l6.06-3.22-2.86-2.6s-4.61,2.5-5.68,2.34S229,296.1,229,296.1m-67.46-29.57c-.48.9-4.47,8-4.47,8,1.25,7.4,3.28,23.33,1.59,27.2,3.75-5,5.15-10.16,5.15-12,0,0-1.87-22.12-2.27-23.14m-45.11,17.84,6.16-2.69c-.93-.63-7.69-.75-8.87-.63Zm29.52,5.54c-.26,1.55-.61,5.67,3.32,4.95,1.41-1.37.2-5.52-3.32-5M95.42,294c-6,.5-16,10.5-21.19,8.29-3.06-1.31-.24-7.93,1.89-9.64-1.79,6.44-1.79,5.68-.48,6.78s9.6-6,13.62-8.63,13.52-4.93,20-5.05a5.88,5.88,0,0,0-2.49-2.35,26.45,26.45,0,0,0-4-.73l3.2-6.56c7.12-1.44,22.15,1,26.08,2l-1.55,7.66a15.4,15.4,0,0,0-6.52,3.2c4,4.57,15.07,0,18-2.21.17-1.21,0-7.89,0-7.89,0-1.33-2.25-1.31-2.25-2.88s4-8.23,4.89-9.25c-.44,1,.16,3.32.16,3.88s2.11,1,2.27,2.46-.06,2.73-1.56,4.58l-.15,3.61s-.08,2.13.55,2.77c1.43.75,2.75-1.29,5.09-.46,3.74,1.35.82,8.09,0,11.13s-1.77,6.84-4.25,6.49c-3.78-.58-3.34-3.44-4.14-7.78-2.11-.93-7.79,5.87-18.41,3.88-4.33-.8-7.47-2.59-11.91-6.66-1.13,1.29-11.31,1-16.86,3.38"/><path class="cls-1" d="M121.61,267.45,115.22,271l3.56,2.34,5.19-3.56ZM18.78,269.93l4,1.59s-5,4.06-5.33,4.18-3.64-1.73-4.85-1.35-4,3.46-4,3.46-3.8-1.36-4.63-1.6c2-1.11,5-4.45,5.58-5,2.35,1,4.72,2.35,5.43,2.09s2.39-3.32,3.8-3.32m43.48,26.66c.7,0,4.51-3.2,5.45-3.1s4,2.61,4,2.61-5.58,4.31-6.16,4.19-3.32-2.34-3.94-2.21a61.17,61.17,0,0,0-5.19,3.32l-5-2.2s5.33-4.56,6.15-4.71,3.8,1.86,4.63,2.1m31.27.12-4.75,2.49,2.35,2.94,5-3.22Z"/></g></g></svg>