<svg xmlns="http://www.w3.org/2000/svg" width="14.562" height="14" viewBox="0 0 14.562 14">
  <g id="profil" transform="translate(0 1230.609)">
    <path id="Tracé_1880" data-name="Tracé 1880" d="M6.974-1230.607l-.165.017a4.622,4.622,0,0,0-2.275.891,5.145,5.145,0,0,0-.8.775,4.57,4.57,0,0,0-.975,3.527,4.573,4.573,0,0,0,1.489,2.774,5.458,5.458,0,0,0,.544.415l.106.068-.06.014c-.162.037-.537.142-.714.2a5.941,5.941,0,0,0-3.851,3.109A3.63,3.63,0,0,0,0-1217.5c0,.119.038.726.052.838l.006.049H14.5l.006-.049c.015-.111.052-.718.052-.833a3.553,3.553,0,0,0-.19-1.115,5.757,5.757,0,0,0-3.866-3.3c-.218-.073-.638-.193-.757-.216a.275.275,0,0,1-.055-.016c-.008,0,.047-.049.148-.118a4.494,4.494,0,0,0,1.092-1.038,4.064,4.064,0,0,0,.274-.411l.1-.187a4.489,4.489,0,0,0,.261-.577,4.589,4.589,0,0,0,.212-2.364,4.748,4.748,0,0,0-.524-1.466,5.658,5.658,0,0,0-.415-.61,5.781,5.781,0,0,0-.7-.7,5.728,5.728,0,0,0-.6-.407,4.707,4.707,0,0,0-1.377-.515,3.791,3.791,0,0,0-.825-.08C7.165-1230.61,7-1230.609,6.974-1230.607Z"/>
  </g>
</svg>
