<svg id="Untitled-1-04" xmlns="http://www.w3.org/2000/svg" width="117.166" height="117.076" viewBox="0 0 117.166 117.076">
  <path id="Tracé_91" data-name="Tracé 91" d="M102.238,117.079H9.586a3.223,3.223,0,0,0-.537-.17,10.467,10.467,0,0,1-6.722-3.877,12.223,12.223,0,0,1-2.357-5.56v-66.1c.04-.061.111-.123.12-.189a10.758,10.758,0,0,1,11.45-9.265c2.435.1,4.879.045,7.318,0a3.825,3.825,0,0,0,1.711-.453c2.032-1.124,4.023-2.322,6.031-3.491Q49.057,14.9,71.509,1.81c3.253-1.886,6.6-2.454,10.146-.943A11.352,11.352,0,0,1,87.109,6.02C91.865,14.349,96.645,22.669,101.38,31a2.168,2.168,0,0,0,1.751,1.216,9.505,9.505,0,0,1,4.714,2.164,10.791,10.791,0,0,1,3.952,8.852c0,4.914.017,9.831-.017,14.747a1.4,1.4,0,0,0,.9,1.468,7.526,7.526,0,0,1,4.393,6.965q.118,8.056,0,16.119a7.584,7.584,0,0,1-4.478,7.035,1.3,1.3,0,0,0-.827,1.388q.035,7.431,0,14.863a10.87,10.87,0,0,1-4.337,9.128A12.46,12.46,0,0,1,102.238,117.079Zm4.143-26.6h-2.656c-4.949-.038-9.923.141-14.86-.17-8.657-.544-15.445-9.1-14.25-17.623A15.983,15.983,0,0,1,90.878,58.529c4.766-.014,9.531,0,14.3,0h1.211V42.014a3.347,3.347,0,0,0-.151-.9c-.707-2.5-2.746-3.872-5.763-3.872H11.49c-4.117,0-6.206,2.074-6.206,6.173v62.09q0,6.258,6.248,6.267h88.747c4.061,0,6.156-2.069,6.163-6.093q.014-6.976,0-13.948C106.443,91.358,106.407,90.979,106.381,90.479ZM99.2,85.086v.04c3.125,0,6.25.014,9.376,0,2.192-.014,3.2-1.023,3.21-3.236q.024-7.375,0-14.747c0-2.251-1.044-3.3-3.283-3.3-5.871-.014-11.74-.031-17.611,0a10.414,10.414,0,0,0-9.345,4.964,10.523,10.523,0,0,0,8.518,16.248C93.105,85.228,96.162,85.086,99.2,85.086ZM30.852,31.651l.045.283c3,0,5.989.026,8.982-.024a3.882,3.882,0,0,0,1.82-.471Q61.41,20.008,81.09,8.525c.309-.181.606-.384.907-.577-1.782-2.76-4.61-3.37-7.542-1.671Q58.086,15.794,41.706,25.339ZM84.719,12.572l-32.808,19.1.064.255h1.087c2.593,0,5.185.04,7.778-.028a4.678,4.678,0,0,0,2.133-.577Q74.691,24.573,86.36,17.74c.316-.184.615-.4.964-.627ZM95.778,31.879c-2-3.476-3.87-6.755-5.784-10.1l-17.007,9.9.087.193Z" transform="translate(0.03 -0.003)" fill="#b69a63"/>
  <path id="Tracé_92" data-name="Tracé 92" d="M366.755,293.62a5.3,5.3,0,1,1-5.265,5.336A5.3,5.3,0,0,1,366.755,293.62Z" transform="translate(-276.284 -224.417)" fill="#b69a63"/>
</svg>
